<svg width="257" height="289" viewBox="0 0 257 289" fill="none" xmlns="http://www.w3.org/2000/svg">
<g clip-path="url(#clip0_27_180)">
<path d="M92.1859 166.322C100.993 140.106 117.794 119.976 135.578 121.916C122.46 146.055 114.81 177.267 113.983 210.031C113.691 222.668 114.144 236.776 109.185 246.239C106.099 252.127 101.383 254.978 96.7458 255.577C92.1085 256.175 87.4723 254.757 82.8969 253.345L81.787 253.922C81.3645 223.774 83.3784 192.538 92.1859 166.322Z" fill="#F0F0F0"/>
<path d="M135.605 122.547C122.453 133.26 111.239 151.151 104.355 172.972C102.867 177.689 101.6 182.694 101.047 187.985C100.494 193.279 100.88 198.319 101.949 203.347C102.926 207.943 104.24 212.454 104.539 217.372C104.855 222.557 103.728 227.404 101.699 231.251C99.2157 235.958 95.8814 238.875 92.5621 241.536C88.8767 244.49 85.021 247.46 82.4107 252.973C82.0944 253.641 81.5003 252.772 81.8161 252.105C86.3576 242.512 94.1315 240.709 99.5223 232.982C102.038 229.376 103.926 224.465 103.807 218.712C103.703 213.681 102.35 209.028 101.337 204.388C100.274 199.516 99.7434 194.617 100.125 189.423C100.515 184.11 101.669 179.011 103.08 174.25C106.261 163.512 110.614 153.654 115.601 145.133C121.332 135.337 128.012 127.273 135.35 121.289C135.805 120.919 136.056 122.179 135.605 122.547Z" fill="white"/>
<path d="M106.372 165.679C104.356 163.185 102.929 159.559 102.347 155.449C101.765 151.339 102.065 147.013 103.194 143.243C103.424 142.482 104.134 143.051 103.904 143.813C102.849 147.32 102.569 151.35 103.116 155.175C103.663 159.001 104.999 162.369 106.885 164.673C107.294 165.175 106.779 166.178 106.372 165.679Z" fill="white"/>
<path d="M101.272 201.126C106.324 199.877 110.913 195.452 114.122 188.733C114.44 188.067 115.034 188.936 114.717 189.601C111.369 196.583 106.589 201.172 101.33 202.452C100.829 202.573 100.774 201.247 101.272 201.126Z" fill="white"/>
<path d="M121.72 136.973C122.382 138.213 123.215 139.156 124.144 139.717C125.074 140.278 126.072 140.439 127.048 140.186C127.548 140.054 127.602 141.381 127.105 141.512C126.026 141.783 124.925 141.602 123.897 140.986C122.868 140.37 121.945 139.338 121.207 137.979C121.131 137.861 121.085 137.698 121.077 137.524C121.07 137.35 121.102 137.177 121.166 137.042C121.235 136.909 121.331 136.827 121.435 136.814C121.539 136.801 121.641 136.858 121.72 136.973Z" fill="white"/>
<path d="M170.964 204.618C170.653 204.715 170.343 204.813 170.029 204.92C165.853 206.268 161.748 208.188 157.756 210.661C157.446 210.844 157.133 211.037 156.826 211.234C147.245 217.365 138.421 226.452 130.8 238.034C127.771 242.647 124.953 247.644 122.371 252.981C118.806 260.352 115.287 268.823 110.628 273.629C110.145 274.14 109.644 274.599 109.128 275.005L82.289 256.168C82.2407 256.074 82.1896 255.989 82.141 255.894L81.0491 255.225C81.1709 254.934 81.3009 254.637 81.4227 254.346C81.4929 254.176 81.5691 254.011 81.6393 253.842C81.6881 253.731 81.7371 253.619 81.7773 253.514C81.7934 253.477 81.8099 253.44 81.8235 253.413C81.8637 253.307 81.9076 253.217 81.9453 253.122C82.6693 251.456 83.4015 249.796 84.1419 248.142C84.1444 248.132 84.1444 248.132 84.1529 248.126C89.8133 235.546 96.144 223.656 103.34 213.77C103.557 213.472 103.775 213.164 104.004 212.876C107.262 208.45 110.729 204.482 114.369 201.012C116.366 199.122 118.418 197.405 120.518 195.867C125.947 191.91 131.711 189.423 137.597 188.497C149.331 186.653 161.283 191.18 170.282 203.653C170.512 203.973 170.737 204.288 170.964 204.618Z" fill="#F0F0F0"/>
<path d="M170.763 205.152C156.45 200.307 141.13 203.168 127.87 213.577C125.003 215.828 122.211 218.533 119.886 222.195C117.561 225.858 116.077 230.275 115.141 235.379C114.285 240.044 113.729 244.984 112.218 249.216C110.626 253.677 108.001 256.399 105.012 257.404C101.355 258.633 97.6546 257.565 94.0576 256.308C90.0639 254.912 85.9287 253.355 81.8827 255.098C81.3924 255.309 81.2274 254.01 81.7169 253.799C88.7563 250.766 95.605 257.246 102.659 256.568C105.95 256.252 109.205 254.255 111.157 249.54C112.864 245.417 113.44 240.323 114.282 235.587C115.166 230.614 116.486 226.162 118.638 222.403C120.841 218.558 123.576 215.663 126.397 213.298C132.757 207.966 139.741 204.53 146.754 202.806C154.816 200.824 163.018 201.19 171.007 203.888C171.501 204.056 171.254 205.318 170.763 205.152Z" fill="white"/>
<path d="M132.075 209.809C131.352 205.763 131.504 201.415 132.501 197.541C133.499 193.666 135.278 190.518 137.521 188.658C137.975 188.284 138.34 189.462 137.885 189.836C135.794 191.562 134.137 194.494 133.213 198.106C132.288 201.717 132.157 205.768 132.842 209.529C132.991 210.346 132.222 210.622 132.075 209.809Z" fill="white"/>
<path d="M115.391 232.916C119.869 237.066 125.107 238.207 130.06 236.112C130.551 235.904 130.716 237.203 130.226 237.411C125.069 239.575 119.619 238.369 114.965 234.033C114.521 233.62 114.949 232.505 115.391 232.916Z" fill="white"/>
<path d="M154.544 202.525C154.631 204.189 154.96 205.79 155.503 207.186C156.046 208.581 156.785 209.726 157.654 210.518C158.1 210.922 157.672 212.037 157.228 211.635C156.27 210.752 155.455 209.486 154.853 207.947C154.252 206.407 153.882 204.642 153.776 202.806C153.758 202.634 153.778 202.457 153.834 202.31C153.89 202.163 153.977 202.058 154.077 202.016C154.179 201.979 154.285 202.013 154.372 202.108C154.46 202.203 154.521 202.353 154.544 202.525Z" fill="white"/>
<path d="M119.839 235.695C116.08 204.943 111.382 194.69 111.382 194.69L109.587 192.335L107.428 189.498L107.439 189.133L106.927 188.839L106.806 188.681L106.609 188.425L106.578 188.482L106.511 188.599L96.7432 182.981L84.3515 175.859L78.6134 163.239C77.6789 161.183 76.4757 159.522 75.0982 158.385C73.7208 157.248 72.2064 156.667 70.6739 156.686L52.3481 156.915C49.8703 156.946 47.4889 158.545 45.6722 161.396L33.6269 180.302L14.8582 195.469L14.8265 195.416L14.6294 195.654L11.7294 198L11.8491 199.054L10.0542 201.246C10.0542 201.246 5.35588 210.786 1.59719 239.4C0.641022 246.681 0.170361 262.299 0.000477408 281.545C-0.00805582 282.518 0.0978802 283.485 0.312123 284.389C0.526366 285.293 0.844643 286.115 1.24845 286.809C1.65225 287.503 2.13353 288.054 2.66429 288.43C3.19505 288.806 3.76471 289 4.34015 289H104.588L117.1 289C117.675 288.999 118.244 288.806 118.775 288.43C119.305 288.054 119.786 287.504 120.19 286.811C120.594 286.118 120.912 285.297 121.127 284.394C121.341 283.491 121.448 282.525 121.44 281.552C121.274 260.61 120.803 243.59 119.839 235.695Z" fill="#3F3D56"/>
<path d="M132.701 26.8181C128.8 26.8181 125.06 29.4398 122.302 34.1063C119.544 38.7729 117.995 45.1022 117.995 51.7017C117.995 58.3013 119.544 64.6305 122.302 69.2971C125.06 73.9637 128.8 76.5853 132.701 76.5853H242.294C246.194 76.5853 249.935 73.9637 252.693 69.2971C255.451 64.6305 257 58.3013 257 51.7017C257 45.1022 255.451 38.7729 252.693 34.1063C249.935 29.4398 246.194 26.8181 242.294 26.8181H132.701Z" fill="#E5E5E5"/>
<path d="M132.701 31.8541C129.59 31.8541 126.606 33.9452 124.407 37.6673C122.207 41.3895 120.971 46.4378 120.971 51.7017C120.971 56.9656 122.207 62.014 124.407 65.7361C126.606 69.4583 129.59 71.5494 132.701 71.5494H242.294C245.405 71.5494 248.389 69.4583 250.588 65.7361C252.788 62.014 254.024 56.9656 254.024 51.7017C254.024 46.4378 252.788 41.3895 250.588 37.6673C248.389 33.9452 245.405 31.8541 242.294 31.8541H132.701Z" fill="white"/>
<path d="M64.3889 145.037C77.6484 145.037 88.3974 126.848 88.3974 104.412C88.3974 81.9756 77.6484 63.7873 64.3889 63.7873C51.1293 63.7873 40.3804 81.9756 40.3804 104.412C40.3804 126.848 51.1293 145.037 64.3889 145.037Z" fill="#9E616A"/>
<path d="M58.247 143.047C58.1445 142.665 58.0422 142.282 57.9402 141.897C57.9795 141.899 58.0184 141.909 58.0577 141.911L58.247 143.047Z" fill="#2F2E41"/>
<path d="M39.7126 65.6347C40.9269 63.9957 42.3461 62.4876 43.8986 62.5723C45.4511 62.657 47.0254 65.0296 46.7038 67.601C49.5554 59.0576 54.0943 52.4867 59.5238 49.0417C64.9533 45.5967 70.9265 45.4979 76.3947 48.7624C80.2533 51.0659 84.0373 55.6743 84.9237 62.4334C85.1512 64.1685 85.2 66.071 85.8403 67.4799C86.6475 69.2563 88.192 69.6582 89.4638 69.0333C89.4765 69.027 89.4892 69.0207 89.5019 69.0143C89.7168 68.8901 89.9487 68.8779 90.1677 68.9792C90.3867 69.0806 90.5826 69.2907 90.7303 69.5826C90.8779 69.8744 90.9704 70.2345 90.9957 70.6162C91.0211 70.998 90.9782 71.3838 90.8726 71.7239L89.7808 75.1693C91.1571 75.6883 92.5871 75.6369 93.9491 75.0193C94.1753 74.9188 94.4144 74.9393 94.6335 75.0779C94.8526 75.2165 95.0409 75.4664 95.1728 75.7933C95.3046 76.1203 95.3735 76.5082 95.3698 76.9039C95.3662 77.2997 95.2903 77.6838 95.1526 78.0037C91.5526 86.3671 85.5381 91.7677 79.4005 91.7042C75.0383 91.6592 70.6311 89.1153 66.3857 90.8127C64.7433 91.4694 63.2086 92.7399 61.8943 94.5311C60.5799 96.3222 59.5192 98.5886 58.79 101.164C58.0608 103.739 57.6816 106.558 57.6802 109.414C57.6788 112.269 58.0553 115.089 58.782 117.666C57.4777 115.253 54.9565 115.824 53.6224 118.191C52.2884 120.558 51.943 124.09 52.0774 127.353C52.283 132.343 53.4384 137.045 54.6566 141.622C44.4436 141.078 34.7839 128.955 31.5324 112.559C28.2672 96.0944 31.6892 76.465 39.7126 65.6347Z" fill="#2F2E41"/>
<path opacity="0.2" d="M23.6306 226.41L30.3645 288.405L34.4049 289L23.6306 226.41Z" fill="black"/>
<path opacity="0.2" d="M97.8053 221.735L91.0715 288.36L87.031 289L97.8053 221.735Z" fill="black"/>
<path d="M45.4562 44.7707C44.1651 45.683 42.8179 44.6832 42.2529 42.3937C41.6792 40.0691 42.215 37.7094 43.5268 36.7825C44.8388 35.8555 46.162 36.8577 46.7449 39.2198C47.319 41.5464 46.7891 43.829 45.4562 44.7707ZM42.983 32.207L41.9564 32.9324C41.7 33.1114 41.4131 33.1211 41.1527 32.9594C40.8922 32.7978 40.6771 32.4766 40.5498 32.0594L40.4991 31.8914C39.3945 28.5205 39.268 24.4238 40.1252 19.7213C40.9192 15.5029 41.249 12.5362 40.5857 9.84846C39.8189 6.74095 38.1814 5.76752 36.0932 7.17765C35.2833 7.74989 35.0256 7.74077 34.3882 8.81062C34.2496 9.04617 34.0843 9.23206 33.9023 9.35722C33.7203 9.48237 33.5252 9.54422 33.3288 9.53908C33.1389 9.5353 32.9514 9.46684 32.7774 9.3378C32.6035 9.20875 32.4467 9.02175 32.3164 8.78796C32.0654 8.33742 31.9247 7.74247 31.9229 7.12326C31.921 6.50405 32.0581 5.90672 32.3064 5.45191C33.3777 3.55434 34.6699 2.05313 36.1013 1.04299C40.5879 -2.1271 42.8465 2.55308 43.8801 6.74141C44.891 10.8381 44.3224 14.6391 43.4086 19.5618C42.6429 23.6522 42.6875 26.6832 43.5573 29.6969C43.6201 29.9248 43.6551 30.1717 43.66 30.423C43.665 30.6742 43.6399 30.9246 43.5863 31.159C43.5326 31.3935 43.4516 31.6072 43.3479 31.7873C43.2442 31.9673 43.1201 32.1101 42.983 32.207Z" fill="#1ADBE4"/>
<path d="M156.908 63.5695H135.103C135.034 63.5703 134.966 63.5479 134.901 63.5036C134.837 63.4593 134.779 63.394 134.73 63.3114C134.681 63.2288 134.642 63.1305 134.615 63.0223C134.588 62.9141 134.575 62.798 134.575 62.6808C134.575 62.5636 134.588 62.4475 134.615 62.3393C134.642 62.2311 134.681 62.1329 134.73 62.0502C134.779 61.9676 134.837 61.9023 134.901 61.858C134.966 61.8137 135.034 61.7913 135.103 61.7921H156.908C157.047 61.7937 157.18 61.888 157.278 62.0545C157.375 62.221 157.43 62.4461 157.43 62.6808C157.43 62.9155 157.375 63.1406 157.278 63.3071C157.18 63.4736 157.047 63.5679 156.908 63.5695Z" fill="#1ADBE4"/>
<path d="M184.57 63.8657H162.765C162.695 63.8665 162.627 63.8441 162.563 63.7998C162.498 63.7555 162.44 63.6902 162.391 63.6076C162.342 63.525 162.303 63.4267 162.276 63.3185C162.25 63.2103 162.236 63.0942 162.236 62.977C162.236 62.8598 162.25 62.7437 162.276 62.6355C162.303 62.5273 162.342 62.4291 162.391 62.3465C162.44 62.2638 162.498 62.1985 162.563 62.1542C162.627 62.1099 162.695 62.0875 162.765 62.0883H184.57C184.639 62.0875 184.708 62.1099 184.772 62.1542C184.836 62.1985 184.894 62.2638 184.943 62.3465C184.992 62.4291 185.032 62.5273 185.058 62.6355C185.085 62.7437 185.098 62.8598 185.098 62.977C185.098 63.0942 185.085 63.2103 185.058 63.3185C185.032 63.4267 184.992 63.525 184.943 63.6076C184.894 63.6902 184.836 63.7555 184.772 63.7998C184.708 63.8441 184.639 63.8665 184.57 63.8657Z" fill="#1ADBE4"/>
<path d="M212.23 64.162H190.425C190.287 64.1604 190.154 64.066 190.056 63.8995C189.959 63.733 189.904 63.5079 189.904 63.2733C189.904 63.0386 189.959 62.8135 190.056 62.647C190.154 62.4805 190.287 62.3862 190.425 62.3846H212.23C212.3 62.3838 212.368 62.4062 212.433 62.4505C212.497 62.4948 212.555 62.5601 212.604 62.6427C212.653 62.7253 212.692 62.8235 212.719 62.9318C212.746 63.04 212.759 63.156 212.759 63.2733C212.759 63.3905 212.746 63.5065 212.719 63.6148C212.692 63.723 212.653 63.8212 212.604 63.9038C212.555 63.9864 212.497 64.0517 212.433 64.0961C212.368 64.1404 212.3 64.1628 212.23 64.162Z" fill="#1ADBE4"/>
<path d="M239.891 64.4582H218.086C217.948 64.4566 217.815 64.3623 217.717 64.1958C217.62 64.0293 217.565 63.8041 217.565 63.5695C217.565 63.3348 217.62 63.1097 217.717 62.9432C217.815 62.7767 217.948 62.6824 218.086 62.6808H239.891C240.03 62.6824 240.163 62.7767 240.26 62.9432C240.358 63.1097 240.413 63.3348 240.413 63.5695C240.413 63.8041 240.358 64.0293 240.26 64.1958C240.163 64.3623 240.03 64.4566 239.891 64.4582Z" fill="#1ADBE4"/>
<path d="M145.958 55.3907C148.196 55.3907 150.011 52.3205 150.011 48.5333C150.011 44.746 148.196 41.6758 145.958 41.6758C143.72 41.6758 141.906 44.746 141.906 48.5333C141.906 52.3205 143.72 55.3907 145.958 55.3907Z" fill="#1ADBE4"/>
<path d="M173.786 55.3907C176.024 55.3907 177.839 52.3205 177.839 48.5333C177.839 44.746 176.024 41.6758 173.786 41.6758C171.548 41.6758 169.733 44.746 169.733 48.5333C169.733 52.3205 171.548 55.3907 173.786 55.3907Z" fill="#1ADBE4"/>
<path d="M201.614 55.3907C203.852 55.3907 205.667 52.3205 205.667 48.5333C205.667 44.746 203.852 41.6758 201.614 41.6758C199.376 41.6758 197.562 44.746 197.562 48.5333C197.562 52.3205 199.376 55.3907 201.614 55.3907Z" fill="#1ADBE4"/>
<path d="M229.442 55.3907C231.68 55.3907 233.495 52.3205 233.495 48.5333C233.495 44.746 231.68 41.6758 229.442 41.6758C227.204 41.6758 225.39 44.746 225.39 48.5333C225.39 52.3205 227.204 55.3907 229.442 55.3907Z" fill="#1ADBE4"/>
</g>
<defs>
<clipPath id="clip0_27_180">
<rect width="257" height="289" fill="white"/>
</clipPath>
</defs>
</svg>
