<svg width="243" height="249" viewBox="0 0 243 249" fill="none" xmlns="http://www.w3.org/2000/svg">
<g clip-path="url(#clip0_23_101)">
<path d="M221.194 227.311C216.535 233.82 211.198 239.44 205.338 244.006C205.204 244.114 205.067 244.215 204.93 244.32L195.444 233.362C195.543 233.241 195.654 233.105 195.772 232.956C202.841 224.197 237.93 162.951 240.269 148.037C240.107 149.279 242.379 198.006 221.194 227.311Z" fill="#F0F0F0"/>
<path d="M207.168 246.12C206.989 246.176 206.806 246.229 206.623 246.276L199.507 238.055C199.646 237.992 199.808 237.917 199.994 237.833C203.048 236.422 212.142 232.162 221.193 227.31C230.918 222.094 240.596 216.201 242.678 212.426C242.231 213.303 228.477 239.902 207.168 246.12Z" fill="#F0F0F0"/>
<path d="M221.062 65.2124H220.048V28.9762C220.048 26.2221 219.633 23.4949 218.825 20.9504C218.018 18.4059 216.834 16.0939 215.342 14.1464C213.85 12.1989 212.078 10.6541 210.129 9.60013C208.179 8.54616 206.089 8.00369 203.979 8.00369H145.157C143.046 8.00369 140.957 8.54615 139.007 9.60011C137.058 10.6541 135.286 12.1989 133.794 14.1464C132.302 16.0938 131.118 18.4058 130.311 20.9503C129.503 23.4948 129.087 26.222 129.087 28.9762V227.771C129.087 230.525 129.503 233.252 130.311 235.797C131.118 238.341 132.302 240.653 133.794 242.601C135.286 244.548 137.058 246.093 139.007 247.147C140.957 248.201 143.046 248.743 145.157 248.743H203.979C206.089 248.743 208.179 248.201 210.129 247.147C212.078 246.093 213.85 244.548 215.342 242.601C216.834 240.653 218.018 238.341 218.825 235.797C219.633 233.252 220.048 230.525 220.048 227.771V91.0059H221.062V65.2124Z" fill="#3F3D56"/>
<path d="M216.628 29.1203V227.625C216.628 229.682 216.317 231.719 215.714 233.619C215.111 235.519 214.227 237.246 213.112 238.7C211.998 240.154 210.674 241.307 209.218 242.094C207.762 242.881 206.202 243.285 204.626 243.284H145.52C143.944 243.284 142.384 242.88 140.928 242.093C139.473 241.306 138.15 240.152 137.036 238.698C135.922 237.244 135.038 235.518 134.435 233.618C133.832 231.718 133.522 229.682 133.522 227.625V29.1203C133.522 27.0639 133.832 25.0276 134.435 23.1277C135.038 21.2278 135.922 19.5016 137.036 18.0475C138.15 16.5934 139.473 15.44 140.928 14.6531C142.384 13.8662 143.944 13.4613 145.52 13.4615H152.693C152.341 14.5914 152.207 15.8169 152.303 17.0302C152.399 18.2435 152.721 19.4075 153.243 20.4197C153.764 21.4319 154.468 22.2614 155.293 22.8352C156.118 23.409 157.038 23.7096 157.973 23.7104H191.67C192.606 23.7115 193.527 23.4123 194.352 22.839C195.178 22.2658 195.882 21.4361 196.404 20.4233C196.926 19.4105 197.249 18.2456 197.344 17.0315C197.439 15.8174 197.304 14.5913 196.951 13.4615H204.626C206.202 13.4607 207.762 13.8652 209.218 14.6518C210.674 15.4384 211.998 16.5917 213.112 18.0458C214.227 19.5 215.111 21.2264 215.714 23.1266C216.317 25.0268 216.628 27.0635 216.628 29.1203Z" fill="white"/>
<path d="M198.242 132.274H146.29C145.38 132.273 144.508 131.8 143.864 130.961C143.221 130.121 142.859 128.982 142.858 127.795V125.565C142.859 124.377 143.221 123.239 143.864 122.399C144.508 121.559 145.38 121.087 146.29 121.086H198.242C199.152 121.087 200.025 121.559 200.668 122.399C201.311 123.239 201.673 124.377 201.674 125.565V127.795C201.673 128.982 201.311 130.121 200.668 130.961C200.025 131.8 199.152 132.273 198.242 132.274Z" fill="#F0F0F0"/>
<path d="M198.242 151.494H146.29C145.38 151.493 144.508 151.021 143.864 150.181C143.221 149.341 142.859 148.203 142.858 147.015V144.785C142.859 143.598 143.221 142.459 143.864 141.619C144.508 140.779 145.38 140.307 146.29 140.306H198.242C199.152 140.307 200.025 140.779 200.668 141.619C201.311 142.459 201.673 143.598 201.674 144.785V147.015C201.673 148.203 201.311 149.341 200.668 150.181C200.025 151.021 199.152 151.493 198.242 151.494Z" fill="#F0F0F0"/>
<path d="M200.841 127.976H148.889C147.934 127.974 147.017 127.478 146.342 126.596C145.666 125.715 145.286 124.519 145.285 123.272V121.042C145.286 119.795 145.666 118.6 146.342 117.718C147.017 116.836 147.934 116.34 148.889 116.339H200.841C201.797 116.34 202.713 116.836 203.388 117.718C204.064 118.6 204.444 119.795 204.445 121.042V123.272C204.444 124.519 204.064 125.715 203.388 126.596C202.713 127.478 201.797 127.974 200.841 127.976ZM148.889 117.235C148.115 117.236 147.374 117.638 146.827 118.351C146.28 119.065 145.972 120.033 145.972 121.042V123.272C145.972 124.282 146.28 125.249 146.827 125.963C147.374 126.677 148.115 127.079 148.889 127.08H200.841C201.615 127.079 202.356 126.677 202.903 125.963C203.45 125.249 203.758 124.282 203.758 123.272V121.042C203.758 120.033 203.45 119.065 202.903 118.351C202.356 117.638 201.615 117.236 200.841 117.235H148.889Z" fill="#3F3D56"/>
<path d="M200.841 147.196H148.889C147.934 147.194 147.017 146.698 146.342 145.817C145.666 144.935 145.286 143.739 145.285 142.492V140.263C145.286 139.016 145.666 137.82 146.342 136.938C147.017 136.057 147.934 135.561 148.889 135.559H200.841C201.797 135.561 202.713 136.057 203.388 136.938C204.064 137.82 204.444 139.016 204.445 140.263V142.492C204.444 143.739 204.064 144.935 203.388 145.817C202.713 146.698 201.797 147.194 200.841 147.196ZM148.889 136.455C148.115 136.456 147.374 136.858 146.827 137.572C146.28 138.285 145.972 139.253 145.972 140.263V142.492C145.972 143.502 146.28 144.47 146.827 145.183C147.374 145.897 148.115 146.299 148.889 146.3H200.841C201.615 146.299 202.356 145.897 202.903 145.183C203.45 144.47 203.758 143.502 203.758 142.492V140.263C203.758 139.253 203.45 138.285 202.903 137.572C202.356 136.858 201.615 136.456 200.841 136.455H148.889Z" fill="#3F3D56"/>
<path d="M216.628 29.1203V72.2979C211.371 74.1029 205.867 74.31 200.54 72.9033C195.212 71.4965 190.202 68.5135 185.897 64.1836C181.591 59.8537 178.104 54.2923 175.703 47.9275C173.302 41.5626 172.053 34.5638 172.05 27.4696C172.05 26.2034 172.089 24.9503 172.167 23.7104H191.671C192.606 23.7115 193.527 23.4123 194.352 22.839C195.178 22.2658 195.883 21.4361 196.404 20.4233C196.926 19.4105 197.249 18.2456 197.344 17.0315C197.439 15.8174 197.304 14.5913 196.951 13.4615H204.626C206.202 13.4607 207.762 13.8652 209.218 14.6518C210.675 15.4384 211.998 16.5917 213.112 18.0458C214.227 19.5 215.111 21.2264 215.714 23.1266C216.317 25.0268 216.628 27.0635 216.628 29.1203Z" fill="#F0F0F0"/>
<path d="M163.387 240.588C163.387 241.498 163.361 242.397 163.304 243.284H145.52C143.944 243.284 142.384 242.879 140.928 242.093C139.473 241.306 138.15 240.152 137.036 238.698C135.922 237.244 135.038 235.518 134.435 233.618C133.832 231.718 133.522 229.682 133.522 227.625V206.393C137.25 205.76 141.038 206.171 144.635 207.6C148.231 209.028 151.553 211.441 154.379 214.676C157.205 217.912 159.47 221.897 161.023 226.365C162.576 230.833 163.382 235.681 163.387 240.588Z" fill="#00BFA6"/>
<path d="M19.9485 203.332C20.4483 203.619 21.0148 203.636 21.5238 203.378C22.0328 203.12 22.4427 202.61 22.6637 201.958L38.685 154.568C39.0517 153.484 39.1638 152.282 39.007 151.114C38.8502 149.946 38.4317 148.866 37.8043 148.009C37.1769 147.151 36.3688 146.556 35.4823 146.299C34.5957 146.041 33.6705 146.132 32.8237 146.561C31.8454 147.048 31.0266 147.963 30.5069 149.15C30.4242 149.338 30.3492 149.531 30.2823 149.729L14.261 197.119C14.1518 197.442 14.0924 197.79 14.0862 198.143C14.08 198.496 14.1272 198.847 14.2249 199.176C14.3227 199.505 14.4692 199.806 14.656 200.061C14.8428 200.316 15.0663 200.521 15.3138 200.663L19.9485 203.332Z" fill="#00BFA6"/>
<path d="M38.0273 174.024L22.1802 169.428L26.1025 155.885C26.7707 152.575 28.3257 149.688 30.4855 147.746C32.6453 145.804 35.2669 144.937 37.8746 145.301L38.0273 145.323L38.0273 174.024Z" fill="#2F2E41"/>
<path d="M70.0359 204.01C69.5698 204.009 69.1139 203.832 68.7233 203.5C68.3328 203.168 68.0243 202.695 67.8352 202.139L51.814 154.749C51.3045 153.241 51.2571 151.536 51.6816 149.984C52.1061 148.432 52.9703 147.151 54.0963 146.405C55.2222 145.659 56.5244 145.505 57.7348 145.974C58.9453 146.443 59.972 147.5 60.6036 148.927C60.6924 149.128 60.7729 149.336 60.8448 149.548L76.866 196.939C77.1233 197.7 77.1384 198.563 76.908 199.338C76.6777 200.113 76.2208 200.738 75.6378 201.073L70.846 203.832L70.8435 203.825C70.5845 203.947 70.3113 204.01 70.0359 204.01Z" fill="#00BFA6"/>
<path d="M47.8743 187.736C47.3283 187.737 46.8048 188.021 46.4188 188.525C46.0327 189.028 45.8156 189.712 45.8149 190.424V245.528C45.8156 246.241 46.0327 246.924 46.4188 247.428C46.8048 247.932 47.3283 248.215 47.8743 248.216H52.94C53.486 248.215 54.0095 247.932 54.3955 247.428C54.7816 246.924 54.9987 246.241 54.9994 245.528V190.424C54.9987 189.712 54.7816 189.028 54.3955 188.525C54.0095 188.021 53.486 187.737 52.94 187.736H47.8743Z" fill="#00BFA6"/>
<path d="M37.8547 187.736C37.3088 187.737 36.7853 188.021 36.3992 188.525C36.0132 189.028 35.796 189.712 35.7954 190.424V245.528C35.796 246.241 36.0132 246.924 36.3992 247.428C36.7853 247.932 37.3088 248.215 37.8547 248.216H42.9206C43.4666 248.215 43.99 247.932 44.3761 247.428C44.7621 246.924 44.9793 246.241 44.9799 245.528V190.424C44.9793 189.712 44.7621 189.028 44.3761 188.525C43.99 188.021 43.4666 187.737 42.9206 187.736H37.8547Z" fill="#00BFA6"/>
<path d="M45.2462 130.005C54.9135 130.005 62.7504 119.777 62.7504 107.16C62.7504 94.5429 54.9135 84.3147 45.2462 84.3147C35.5789 84.3147 27.7419 94.5429 27.7419 107.16C27.7419 119.777 35.5789 130.005 45.2462 130.005Z" fill="#00BFA6"/>
<path d="M51.0711 116.75C52.2057 116.709 53.6179 116.658 54.7058 115.62C55.0297 115.299 55.2959 114.889 55.4856 114.419C55.6754 113.949 55.7841 113.431 55.8041 112.9C55.8238 112.523 55.7764 112.145 55.6656 111.796C55.5549 111.447 55.3837 111.136 55.1656 110.887C54.5974 110.261 53.7677 110.114 52.8735 110.457L53.7999 101.621L53.1199 101.499L52.0308 111.887L52.5987 111.547C53.2571 111.153 54.1609 110.952 54.7225 111.572C54.8604 111.734 54.9679 111.935 55.0365 112.16C55.1051 112.385 55.133 112.627 55.1181 112.869C55.1015 113.263 55.0199 113.649 54.8789 113.999C54.7378 114.349 54.5407 114.655 54.3009 114.897C53.4543 115.704 52.3286 115.808 51.052 115.855L51.0711 116.75Z" fill="#2F2E41"/>
<path d="M60.8604 102.383H57.1633V103.279H60.8604V102.383Z" fill="#2F2E41"/>
<path d="M49.1909 102.383H45.4939V103.279H49.1909V102.383Z" fill="#2F2E41"/>
<path d="M62.5903 204.288L56.2901 144.263C56.2226 143.62 55.9787 143.03 55.6036 142.603C55.2285 142.176 54.7475 141.94 54.2498 141.94H49.4943C49.5141 141.792 49.5244 141.643 49.5251 141.492V139.253C49.5251 138.54 49.3082 137.856 48.922 137.352C48.5358 136.848 48.012 136.565 47.4658 136.565H43.3472C42.801 136.565 42.2772 136.848 41.891 137.352C41.5048 137.856 41.2879 138.54 41.2879 139.253V141.492C41.2886 141.643 41.2989 141.792 41.3187 141.94H36.5632C36.0655 141.94 35.5845 142.176 35.2094 142.603C34.8343 143.03 34.5904 143.62 34.5228 144.263L28.2227 204.288C28.1828 204.669 28.2057 205.055 28.29 205.423C28.3742 205.791 28.5178 206.131 28.7111 206.42C28.9044 206.709 29.1429 206.941 29.4106 207.1C29.6782 207.259 29.9688 207.341 30.2629 207.341H60.5501C60.8441 207.341 61.1347 207.259 61.4024 207.1C61.6701 206.941 61.9086 206.709 62.1019 206.42C62.2952 206.131 62.4388 205.791 62.523 205.423C62.6073 205.056 62.6302 204.669 62.5903 204.288Z" fill="#2F2E41"/>
<path d="M52.7856 174.024V145.323L52.9383 145.301C55.5493 144.937 58.1737 145.807 60.3349 147.753C62.4961 149.7 64.0506 152.594 64.7161 155.909L68.6327 169.428L52.7856 174.024Z" fill="#2F2E41"/>
<path d="M44.3647 130.718L32.2574 124.585C30.2776 123.582 28.2868 122.61 26.3175 121.572C25.4739 121.189 24.6969 120.591 24.0311 119.814C23.4515 119.013 23.0564 118.015 22.8912 116.935C22.4713 114.618 22.5472 112.086 22.5772 109.722C22.6004 107.135 22.7635 104.555 23.0652 101.999C23.5939 97.1952 24.8355 92.5726 26.7205 88.3897C30.1159 81.1188 35.9659 75.6485 42.695 76.085C45.8103 76.2872 48.9435 77.7461 51.2582 80.526C51.4996 80.9026 51.7705 81.2453 52.0665 81.5484C52.2722 81.6491 52.496 81.6687 52.7102 81.6048C52.9927 81.5811 53.2754 81.563 53.5583 81.5505C54.54 81.4965 55.5234 81.5503 56.4981 81.7115C58.2745 81.9619 59.9581 82.8743 61.348 84.3397C62.5047 85.6384 63.4458 87.4717 63.5427 89.509C63.5894 90.4443 63.471 91.381 63.1964 92.2471C62.9218 93.1131 62.4984 93.8852 61.959 94.5039C60.5145 96.0927 58.4536 95.5343 56.721 95.4145L50.3735 94.9756L47.1575 94.7532C46.4953 94.7074 46.4972 96.0514 47.1575 96.0971L55.7054 96.6881C57.079 96.7831 58.4947 97.0158 59.8695 96.9083C60.9258 96.8459 61.9344 96.3163 62.7296 95.4067C63.4558 94.536 63.9967 93.4346 64.2997 92.2098C64.6027 90.985 64.6573 89.6787 64.4582 88.4181C64.0176 85.6688 62.4498 83.3945 60.6119 82.0415C58.1112 80.2006 55.1245 80.0242 52.3263 80.2963L52.6903 80.4931C49.5251 76.0593 44.6766 74.1872 40.125 74.8424C35.3191 75.5341 31.0447 79.0333 27.9736 83.8181C24.5494 89.1529 22.6835 95.805 21.9581 102.645C21.5806 106.338 21.4563 110.068 21.5867 113.79C21.5814 115.432 21.7965 117.062 22.2225 118.606C22.7084 120.109 23.5871 121.339 24.7023 122.076C25.9808 122.881 27.2951 123.586 28.6383 124.186L33.0988 126.446L41.8607 130.884L44.091 132.014C44.7091 132.327 44.9768 131.028 44.3647 130.718Z" fill="#2F2E41"/>
<path d="M25.328 85.0508C24.2758 85.0508 23.2472 84.6436 22.3724 83.8807C21.4975 83.1178 20.8157 82.0334 20.413 80.7647C20.0104 79.496 19.905 78.0999 20.1103 76.7531C20.3155 75.4062 20.8222 74.1691 21.5662 73.1981C22.3102 72.227 23.2582 71.5657 24.2901 71.2978C25.3221 71.0299 26.3917 71.1674 27.3638 71.693C28.3359 72.2185 29.1668 73.1084 29.7513 74.2502C30.3359 75.392 30.6479 76.7344 30.6479 78.1076C30.6463 79.9485 30.0853 81.7133 29.088 83.0149C28.0906 84.3166 26.7384 85.0488 25.328 85.0508ZM25.328 72.5083C24.4794 72.5083 23.65 72.8367 22.9444 73.4519C22.2389 74.0672 21.689 74.9417 21.3643 75.9649C21.0396 76.988 20.9546 78.1138 21.1202 79.2C21.2857 80.2862 21.6943 81.2839 22.2943 82.067C22.8943 82.8501 23.6588 83.3834 24.491 83.5994C25.3232 83.8155 26.1858 83.7046 26.9698 83.2808C27.7537 82.857 28.4238 82.1393 28.8952 81.2185C29.3666 80.2977 29.6182 79.2151 29.6182 78.1076C29.617 76.6231 29.1645 75.1999 28.3602 74.1501C27.5559 73.1004 26.4654 72.5099 25.328 72.5083Z" fill="#2F2E41"/>
<path d="M114.258 128.079L102.743 116.585L93.9364 131.613L105.451 143.107L114.258 128.079Z" fill="#F0F0F0"/>
<path d="M49.1818 25.4737C51.0011 25.4718 52.7955 26.026 54.4212 27.0918C56.047 28.1577 57.4589 29.7056 58.5439 31.6115L65.2676 20.1379L45.0935 0L29.6638 26.33L38.3588 35.0093C39.2289 32.1929 40.7242 29.7801 42.6528 28.081C44.5813 26.3819 46.855 25.4739 49.1818 25.4737Z" fill="#F0F0F0"/>
<path d="M242.657 249H0.34322C0.252193 249 0.164893 248.953 0.100527 248.869C0.0361604 248.785 0 248.671 0 248.552C0 248.433 0.0361604 248.319 0.100527 248.235C0.164893 248.151 0.252193 248.104 0.34322 248.104H242.657C242.748 248.104 242.835 248.151 242.899 248.235C242.964 248.319 243 248.433 243 248.552C243 248.671 242.964 248.785 242.899 248.869C242.835 248.953 242.748 249 242.657 249Z" fill="#3F3D56"/>
<path d="M183.516 174.672H158.851C157.941 174.67 157.069 174.198 156.425 173.358C155.782 172.518 155.42 171.38 155.419 170.192V167.962C155.42 166.775 155.782 165.636 156.425 164.796C157.069 163.957 157.941 163.484 158.851 163.483H183.516C184.426 163.484 185.298 163.957 185.941 164.796C186.585 165.636 186.947 166.775 186.948 167.962V170.192C186.947 171.38 186.585 172.518 185.941 173.358C185.298 174.198 184.426 174.67 183.516 174.672Z" fill="#00BFA6"/>
<path d="M186.114 170.373H161.45C160.494 170.372 159.578 169.876 158.903 168.994C158.227 168.112 157.847 166.917 157.846 165.67V163.44C157.847 162.193 158.227 160.998 158.903 160.116C159.578 159.234 160.494 158.738 161.45 158.737H186.114C187.07 158.738 187.986 159.234 188.661 160.116C189.337 160.998 189.717 162.193 189.718 163.44V165.67C189.717 166.917 189.337 168.112 188.661 168.994C187.986 169.876 187.07 170.372 186.114 170.373ZM161.45 159.633C160.676 159.634 159.935 160.035 159.388 160.749C158.841 161.463 158.533 162.431 158.532 163.44V165.67C158.533 166.679 158.841 167.647 159.388 168.361C159.935 169.075 160.676 169.476 161.45 169.477H186.114C186.888 169.476 187.629 169.075 188.176 168.361C188.723 167.647 189.031 166.679 189.032 165.67V163.44C189.031 162.431 188.723 161.463 188.176 160.749C187.629 160.035 186.888 159.634 186.114 159.633H161.45Z" fill="#3F3D56"/>
</g>
<defs>
<clipPath id="clip0_23_101">
<rect width="243" height="249" fill="white"/>
</clipPath>
</defs>
</svg>
